<svg width="30" height="30" viewBox="0 0 30 30" fill="none" xmlns="http://www.w3.org/2000/svg">
<path d="M6.28572 19.145C7.92862 19.145 5.71187 21.5557 6.28572 22.8497C7.4334 25.4378 11.2142 22.8497 12.8571 22.8497C14.5 22.8498 9.57147 19.145 12.8571 19.145C16.1428 19.145 19.4286 22.8497 22.7143 22.8497C24.1352 22.8497 24.9416 21.8105 25.3993 20.481C26 18.7362 26 16.4916 26 15.4402C26 13.5879 24.8833 10.1486 22.7143 8.03075C20.3015 5.67487 17.4398 5.93351 14.6799 6.10588C14.0652 6.14427 13.4556 6.17838 12.8571 6.17838C11.6592 6.17837 10.0246 6.67081 8.4309 7.38638C5.6533 8.63353 3.00006 10.5585 3 11.7355C2.9999 13.5878 4.64282 19.145 6.28572 19.145Z" fill="#00FF59" stroke="black" stroke-width="2"/>
<path d="M15 10V16M18 13H12" stroke="black" stroke-width="2" stroke-linecap="round"/>
</svg>
