<svg width="30" height="30" viewBox="0 0 30 30" fill="none" xmlns="http://www.w3.org/2000/svg">
<path d="M3 23.9807C3 23.9807 4 11.1353 9 6.99999C14 2.86472 18 2.49999 22 3.5C24.2016 4.0504 25.4944 6.54061 26.2118 8.66857C26.9172 10.7607 26.7804 13.0086 26.35 15.1741L24 27" stroke="black" stroke-width="4" stroke-linecap="round"/>
<path d="M16 14.5L15.7153 14.7766C14.9862 15.4848 13.7803 15.2874 13.3151 14.3837C12.888 13.5538 13.3065 12.5388 14.1945 12.2513L15.361 11.8736C16.6871 11.4442 18.1126 12.1568 18.565 13.4752L18.6707 13.7831C19.1441 15.1629 18.5137 16.679 17.2016 17.3164L16.3202 17.7445C14.2495 18.7502 11.7595 17.8016 10.883 15.6729L10.6424 15.0886C9.71941 12.8471 10.6996 10.2745 12.88 9.21542L13.9428 8.69919C16.9551 7.23611 20.5772 8.61614 21.8523 11.7127C22.5719 13.4602 22.3963 15.4487 21.3816 17.0431L20.9789 17.676C20.0261 19.1732 18.5577 20.2692 16.8514 20.7567L12.5 22" stroke="black" stroke-width="2" stroke-linecap="round"/>
</svg>
